<?xml version="1.0" standalone="no"?>
<!DOCTYPE svg PUBLIC "-//W3C//DTD SVG 20010904//EN"
 "http://www.w3.org/TR/2001/REC-SVG-20010904/DTD/svg10.dtd">
<svg version="1.0" xmlns="http://www.w3.org/2000/svg"
 width="700.000000pt" height="700.000000pt" viewBox="0 0 700.000000 700.000000"
 preserveAspectRatio="xMidYMid meet">
<metadata>
Created by potrace 1.14, written by Peter Selinger 2001-2017
</metadata>
<g transform="translate(0.000000,700.000000) scale(0.100000,-0.100000)"
fill="#000000" stroke="none">
<path d="M5018 6205 c-2 -2 -39 -5 -83 -9 -432 -30 -889 -193 -1300 -465 -55
-36 -105 -70 -111 -76 -7 -5 -24 -19 -40 -30 -170 -120 -428 -357 -590 -540
l-62 -69 42 -19 c137 -62 504 -161 726 -196 393 -62 747 -58 1095 13 607 124
1230 517 1743 1099 l33 37 -45 20 c-78 33 -330 112 -433 135 -204 46 -299 62
-528 91 -51 6 -441 14 -447 9z"/>
<path d="M1643 4763 c-176 -172 -428 -511 -575 -773 -163 -288 -305 -654 -343
-880 -3 -19 -8 -42 -10 -50 -11 -38 -33 -186 -43 -285 -14 -146 -6 -553 14
-695 27 -190 63 -372 101 -510 8 -30 18 -68 23 -85 28 -108 158 -466 175 -483
10 -10 252 265 343 390 31 43 62 78 69 78 18 0 17 -2 -15 -62 -15 -29 -47
-100 -71 -158 -24 -58 -49 -118 -56 -135 -12 -28 -85 -250 -100 -304 l-7 -24
103 8 c57 4 106 8 109 10 3 1 32 6 65 10 198 22 633 136 798 209 18 7 57 24
87 36 209 85 455 229 650 379 78 60 316 289 386 371 129 151 272 357 371 535
81 144 253 514 253 545 0 5 4 18 10 28 14 24 90 258 90 277 0 12 -9 14 -42 11
-24 -3 -74 -8 -113 -11 -38 -4 -119 -15 -180 -25 -60 -10 -111 -17 -114 -15
-2 3 1 10 6 17 13 16 114 245 149 336 32 84 90 262 99 303 l7 30 -69 -5 c-37
-4 -86 -9 -108 -12 -22 -3 -53 -7 -70 -9 -53 -7 -109 -16 -161 -26 -28 -5 -64
-12 -80 -15 -74 -13 -319 -78 -414 -111 -375 -128 -644 -272 -946 -506 l-24
-19 -1 179 c-1 98 -2 189 -4 203 -1 14 -6 61 -10 104 -4 44 -9 88 -11 99 -2
11 -6 45 -10 76 -5 46 -28 165 -70 361 -32 149 -184 600 -214 633 -4 5 -25 -9
-47 -30z"/>
</g>
</svg>
