<svg xmlns="http://www.w3.org/2000/svg" width="65" height="64" fill="none">
  <g fill="#34A34F" clip-path="url(#clip0)">
    <path d="M62.43 31.213v-1.355a2.94 2.94 0 00-2.938-2.937h-5.656a5.098 5.098 0 001.008-2.102l1.187-5.342h.284a1.975 1.975 0 001.973-1.973v-2.07c0-1.332-.87-2.463-2.071-2.858V11.22a2.94 2.94 0 00-2.938-2.938H19.142a.937.937 0 100 1.875h34.137c.586 0 1.063.477 1.063 1.063v1.204H10.658v-1.204c0-.586.477-1.063 1.063-1.063h3.67a.937.937 0 100-1.875h-3.67a2.94 2.94 0 00-2.938 2.938v1.354a3.013 3.013 0 00-2.07 2.858v2.071c0 1.088.885 1.973 1.972 1.973h.284l1.187 5.341a5.098 5.098 0 001.008 2.102H5.509a2.94 2.94 0 00-2.937 2.938v1.355A3.013 3.013 0 00.5 34.07v2.07c0 1.089.885 1.974 1.973 1.974h.202L4.218 51.23a5.08 5.08 0 005.044 4.486H43.05a.937.937 0 100-1.875H9.262a3.205 3.205 0 01-3.182-2.83L4.562 38.115h14.575v2.31a4.943 4.943 0 004.938 4.938h16.85a4.943 4.943 0 004.938-4.938v-2.31h14.575L58.92 51.012a3.205 3.205 0 01-3.182 2.83H46.8a.937.937 0 100 1.875h8.938a5.08 5.08 0 005.044-4.486l1.543-13.116h.202a1.975 1.975 0 001.973-1.973V34.07c0-1.332-.87-2.463-2.07-2.858zM8.586 17.504v-2.07c0-.625.509-1.134 1.134-1.134h45.558c.625 0 1.133.508 1.133 1.133v2.071a.098.098 0 01-.097.098H8.684a.098.098 0 01-.098-.098zm3.4 6.908l-1.098-4.935h43.222l-1.097 4.935a3.185 3.185 0 01-3.128 2.509H15.114a3.185 3.185 0 01-3.128-2.51zm-7.541 5.446c0-.585.477-1.062 1.062-1.062h53.984c.585 0 1.062.477 1.062 1.062v1.204H4.446v-1.204zM2.473 36.24a.098.098 0 01-.098-.098V34.07c0-.625.508-1.133 1.133-1.133h15.63v3.302H2.473zm38.452 7.247h-16.85a3.066 3.066 0 01-3.063-3.062v-7.487h22.975v7.487a3.066 3.066 0 01-3.062 3.063zm21.7-7.345a.098.098 0 01-.098.098H45.862v-3.303h15.63c.625 0 1.133.509 1.133 1.134v2.07z"/>
    <path d="M36.642 35.204h-8.284a3.012 3.012 0 00-3.008 3.008 3.012 3.012 0 003.008 3.009h8.284a3.012 3.012 0 003.008-3.009 3.012 3.012 0 00-3.008-3.008zm0 4.142h-8.284a1.135 1.135 0 01-1.133-1.133c0-.625.508-1.134 1.133-1.134h8.284c.625 0 1.133.509 1.133 1.133 0 .625-.508 1.134-1.133 1.134z"/>
  </g>
  <defs>
    <clipPath id="clip0">
      <path fill="#fff" d="M0 0h64v64H0z" transform="translate(.5)"/>
    </clipPath>
  </defs>
</svg>