<svg xmlns="http://www.w3.org/2000/svg" width="65" height="64" fill="none">
  <g clip-path="url(#clip0)">
    <path fill="#34A34F" d="M59.592 44.077l4.908 4.906-4.908 4.913c-.217.212-.496.32-.771.32a1.1 1.1 0 01-.772-.32 1.098 1.098 0 010-1.546l2.072-2.069H45.783c-3.85 0-8.325-2.823-9.99-6.294L24.841 21.082c-1.325-2.762-5.028-5.096-8.092-5.096H1.554a1.053 1.053 0 110-2.107H16.75c3.846 0 8.328 2.825 9.988 6.295l10.954 22.903c1.325 2.762 5.029 5.102 8.091 5.102h14.829l-2.563-2.563a1.092 1.092 0 010-1.542 1.083 1.083 0 011.543.003zm-21.9-22.99c1.325-2.762 5.029-5.1 8.091-5.1h14.664l-2.397 2.396a1.092 1.092 0 00.772 1.862c.275 0 .558-.109.77-.32l4.909-4.91-4.908-4.913a1.098 1.098 0 00-1.546 0 1.097 1.097 0 000 1.547l2.237 2.234H45.78c-3.85 0-8.324 2.824-9.991 6.296l-3.358 7.024 1.168 2.439 4.094-8.555zm-12.85 21.996c-1.325 2.762-5.028 5.098-8.092 5.098H1.554a1.053 1.053 0 100 2.105H16.75c3.846 0 8.328-2.823 9.988-6.293l3.363-7.03-1.167-2.44-4.092 8.56z"/>
  </g>
  <defs>
    <clipPath id="clip0">
      <path fill="#fff" d="M0 0h64v64H0z" transform="translate(.5)"/>
    </clipPath>
  </defs>
</svg>