<svg xmlns="http://www.w3.org/2000/svg" width="65" height="64" fill="none">
  <g clip-path="url(#clip0)">
    <path fill="#34A34F" d="M59.291 49.273l-.696-.16c6.748-5.528 8.186-17.803 1.83-24.2-2.446-2.46-3.907-6.352-3.907-10.415 0-5.887-3.873-10.678-8.635-10.678-4.76 0-8.634 4.79-8.634 10.678 0 1.338-.159 2.657-.46 3.912-4.435-5.12-11.48-5.707-16.19-2.434V3.966a.943.943 0 00-1.886 0v3.702c-2.816-5.08-7.94-6.44-13.678-5.284a.945.945 0 00-.686 1.282c.052.129 1.322 3.19 3.776 5.87 2.904 3.172 6.508 4.748 10.588 3.618v2.822c-5.537-3.848-14.81-2.467-18.618 6.307a.942.942 0 001.73.75c3.486-8.028 11.821-8.676 16.242-5.194a2.47 2.47 0 003.178 0c5.033-3.964 13.74-2.239 16.723 6.434 1.604 4.672 1.283 9.557-1.501 14.61a690.812 690.812 0 00-2.77 5c-5.839-1.258-6.672-1.718-8.66-1.675a.94.94 0 00-.922.96.94.94 0 00.962.924c.341-.007.73.01 1.14.06l-.566 5.079a.942.942 0 101.874.209l.547-4.91c3.766.86 6.217 1.42 9.138 2.089l-.27 2.421a.943.943 0 101.874.209l.246-2.208 14.132 3.229-.728 6.536a.943.943 0 001.874.21l.704-6.324 1.83.419a4.526 4.526 0 013.507 4.937 4.546 4.546 0 01-4.51 4.044l-9.65.019.342-3.074a.943.943 0 10-1.874-.21l-.366 3.288-9.25.017.323-2.89a.943.943 0 00-1.874-.208l-.346 3.102-4.428.009.56-5.031a.942.942 0 10-1.873-.209l-.585 5.243h-.021H28.814l-1.561.003a8.04 8.04 0 01-7.775-6.012c-.925-3.563.695-7.542 4.342-9.275a.943.943 0 10-.809-1.703 9.889 9.889 0 00-4.307 3.93c-1.909-.952-4.091-2.45-5.255-4.654-1.505-2.858-5.844-1.785-5.858 1.442l-2.954-5.37c-2.025-3.68-2.767-7.81-1.886-12.071a.943.943 0 00-1.846-.382c-.946 4.573-.228 9.168 2.079 13.361l4.028 7.321-2.952-.329a3.108 3.108 0 00-3.435 2.747 3.113 3.113 0 002.746 3.434l4.887.544c-1.212 1.085-2.187 2.069-2.065 3.62.212 2.74 3.661 3.883 5.463 1.778 1.484-1.735 3.802-2.808 6.151-3.386 1.277 3.992 5.029 6.891 9.446 6.891l30.618-.059a6.432 6.432 0 006.423-6.439 6.4 6.4 0 00-5.003-6.266zM8.61 4.029c6.269-.856 10.222 2.132 11.542 7.323C15.044 12.727 11.027 8.69 8.61 4.03zM56.136 48.55l-18.52-4.231c.535-.98 1.129-2.063 1.79-3.253 1.746 3.008 5.001 5.034 8.721 5.034 4.786 0 8.94-3.401 9.878-8.088a.942.942 0 00-1.85-.37c-.76 3.808-4.137 6.573-8.028 6.573-3.444 0-6.398-2.138-7.606-5.157 1.566-2.981 2.316-6.132 2.291-9.257 4.73-4.045 12.024-1.493 13.318 4.483a.942.942 0 101.842-.4 10.11 10.11 0 00-3.48-5.667c-3.35-2.735-8.14-3.043-11.83-.65-.313-2.479-1.137-5.061-2.453-7.213a18.64 18.64 0 00.925-5.857c0-4.35 2.71-8.793 6.75-8.793 3.996 0 6.748 4.384 6.748 8.793 0 4.617 1.625 8.897 4.456 11.746 4.91 4.937 4.435 14.104.17 19.504-.927 1.173-1.982 2.116-3.122 2.803zm-38.73 4.738c-2.686.654-5.404 1.938-7.183 4.018a1.226 1.226 0 01-1.726.134 1.222 1.222 0 01-.134-1.725c.82-.96 1.804-1.794 2.85-2.466.743-.48.474-1.63-.407-1.728l-7.226-.806a1.224 1.224 0 11.271-2.432h.011-.005l.022.003h-.002l.022.002c-.003 0-.008 0-.013-.002l6.53.728c.3-.019 1.214.37 1.613-.45a.943.943 0 00-.175-1.073 13.047 13.047 0 01-2.237-3.032 1.226 1.226 0 01.51-1.655h.002a1.223 1.223 0 011.653.512c1.389 2.632 3.937 4.383 6.13 5.473-.501 1.412-.688 2.98-.506 4.5z"/>
  </g>
  <defs>
    <clipPath id="clip0">
      <path fill="#fff" d="M0 0h64v64H0z" transform="translate(.5)"/>
    </clipPath>
  </defs>
</svg>