<svg xmlns="http://www.w3.org/2000/svg" width="139" height="56" fill="none">
  <path fill="#fff" d="M74.976 37.84c-2.185 0-3.98-.714-5.38-2.145-1.4-1.428-2.1-3.12-2.1-5.076 0-2.167.71-3.898 2.129-5.192 1.419-1.295 3.145-1.952 5.178-1.97 1.707-.02 3.155.369 4.344 1.165 1.19.796 1.785 1.826 1.785 3.092 0 .48-.168.883-.503 1.209-.335.326-.868.48-1.596.46a2.485 2.485 0 01-1.683-.778c-.47-.48-.811-.998-1.022-1.553a5.487 5.487 0 00-.862-1.51c-.365-.45-.777-.676-1.237-.676-.594.02-1.078.335-1.453.95-.374.613-.56 1.371-.56 2.271 0 1.88.426 3.385 1.28 4.516.852 1.131 1.989 1.698 3.408 1.698 1.284 0 2.35-.556 3.193-1.668.192-.23.421-.31.69-.245.27.068.403.254.403.561-.04 1.342-.585 2.494-1.64 3.452-1.057.958-2.514 1.438-4.374 1.438zm23.215-3.453c.038.48.22.955.546 1.423.326.471.49.83.49 1.079v.115c0 .365-.23.546-.691.546H92.81c-.46 0-.69-.183-.69-.546v-.115c0-.23.177-.586.532-1.066.354-.478.522-.958.503-1.438l-.288-5.351c-.077-1.323-.27-2.268-.576-2.833-.307-.565-.787-.849-1.438-.849-.614 0-1.079.25-1.395.747-.316.5-.474 1.18-.474 2.043v6.272c0 .48.216.954.647 1.425.431.47.648.818.648 1.05v.115c0 .365-.23.546-.691.546h-6.242c-.44 0-.66-.183-.66-.546v-.115c0-.23.21-.58.632-1.05.421-.471.632-.945.632-1.425V21.066c0-.499-.235-.949-.704-1.352-.47-.402-.704-.719-.704-.948v-.087c0-.344.22-.613.66-.805l4.547-2.015c.325-.152.589-.173.79-.058.202.115.301.335.301.663v8.342c.863-.902 2.034-1.351 3.51-1.351 1.418 0 2.646.455 3.681 1.366 1.035.911 1.63 2.374 1.785 4.388l.374 5.178zm14.498-1.381c.211-.211.446-.273.704-.187.26.087.378.283.36.59-.04.96-.595 1.936-1.668 2.934-1.075.998-2.464 1.496-4.172 1.496-2.091 0-3.796-.672-5.12-2.014-1.323-1.342-1.985-3.096-1.985-5.265 0-2.07.694-3.772 2.085-5.106 1.391-1.333 3.053-2 4.992-2 1.745 0 3.097.404 4.057 1.21.958.805 1.438 1.716 1.438 2.732 0 .806-.375 1.4-1.122 1.783l-5.724 3.222c.787 1.247 1.878 1.87 3.279 1.87.595 0 1.156-.119 1.683-.36.527-.239.924-.54 1.193-.905zm-5.321-8.142c-.576 0-1.041.288-1.395.863-.356.576-.533 1.295-.533 2.157 0 1.15.143 2.157.431 3.021l2.675-1.611c.499-.345.747-.834.747-1.467 0-.632-.158-1.285-.474-1.955-.314-.672-.8-1.008-1.451-1.008zm14.959-6.96c-.652 0-1.023.402-1.107 1.208-.085.806-.01 1.645.229 2.517.239.873.512 1.577.821 2.114h3.251a.64.64 0 01.661.66v.633a.64.64 0 01-.661.66h-3.136v8.688c0 .498.26.982.777 1.453.518.47.778.819.778 1.05v.115c0 .365-.22.546-.661.546h-6.328c-.443 0-.661-.183-.661-.546v-.115c0-.23.192-.58.576-1.05.384-.47.576-.955.576-1.453v-8.688h-1.869a.645.645 0 01-.475-.186.643.643 0 01-.186-.474v-.633c0-.192.062-.35.186-.474a.645.645 0 01.475-.186h1.869v-1.438c0-1.708.499-3.097 1.496-4.172.998-1.073 2.483-1.611 4.46-1.611 1.265 0 2.349.365 3.25 1.094.902.728 1.352 1.583 1.352 2.56 0 .442-.164.84-.489 1.193-.326.356-.787.533-1.382.533-.633 0-1.131-.14-1.497-.418-.365-.279-.609-.614-.734-1.007a10.713 10.713 0 01-.301-1.165 2.637 2.637 0 00-.403-.992c-.197-.277-.483-.416-.867-.416z"/>
  <path fill="#34A34F" d="M18.594 15.216s-1.47 5.906-6.13 9.635C7.802 28.581 1.716 28.72 1.716 28.72s1.47-5.907 6.13-9.638c4.662-3.727 10.747-3.866 10.747-3.866z"/>
  <path fill="#5FD16F" d="M19.695 18.736s-1.058.024-2.631.323c-.96 1.862-2.438 4.063-4.6 5.794-2.717 2.174-5.919 3.129-8.117 3.545-1.109 2.147-1.53 3.843-1.53 3.843s6.085-.139 10.746-3.868c4.662-3.729 6.132-9.637 6.132-9.637z"/>
  <path fill="#138622" d="M17.064 19.06c-2.199.417-5.399 1.37-8.117 3.544-1.44 1.152-2.575 2.513-3.458 3.842-.212.369-.433.719-.651 1.05-.177.307-.34.608-.493.9 2.198-.418 5.398-1.37 8.116-3.545 2.165-1.73 3.643-3.932 4.603-5.792z"/>
  <path fill="#9DE48D" d="M5.915 9.826S1.382 13.89.268 19.756c-1.115 5.863 1.61 11.307 1.61 11.307s1.078-.966 2.312-2.635c-1.485.27-2.473.293-2.473.293S3.17 22.882 7.77 19.15c.284-5.052-1.854-9.324-1.854-9.324z"/>
  <path fill="#20922C" d="M7.767 19.148C3.17 22.88 1.715 28.72 1.715 28.72s.988-.023 2.474-.294c.214-.29.433-.6.65-.93.2-.344.417-.696.652-1.05.868-1.499 1.653-3.298 2.035-5.312.126-.67.203-1.335.24-1.986z"/>
  <path fill="#0C7813" d="M5.491 26.446c-.235.354-.452.706-.651 1.05.218-.33.437-.681.651-1.05z"/>
  <path fill="#34A34F" d="M33.508 3.426s-3.799 4.757-9.59 6.205c-5.793 1.447-11.381-.964-11.381-.964s3.798-4.757 9.59-6.204c5.792-1.448 11.381.963 11.381.963zM36.285 16.292c-.98 0-1.776.273-2.387.82-.567.504-.872 1.125-.915 1.865a18.917 18.917 0 013.158-.285c.262 0 .407.008.407.008s-.463 1.396-1.528 3.162c.382.123.803.185 1.266.185.959 0 1.745-.273 2.359-.821.614-.546.92-1.231.92-2.057 0-.825-.306-1.51-.92-2.058-.616-.546-1.402-.819-2.36-.819zM38.816 28.98c-1.81.666-3.627.91-5.15.965v1.68c1.975.35 3.731 1.127 5.15 1.959v-4.605zM38.816 33.633a15.838 15.838 0 01-3.42 2.162 18.97 18.97 0 013.236 1.755h.76c.48 0 .72-.183.72-.546v-.115c0-.23-.217-.586-.648-1.066-.431-.478-.648-.958-.648-1.438v-.752zm-9.492-.695a14.07 14.07 0 01-2.327 1.7 13.97 13.97 0 012.238-.187h.089v-1.513z"/>
  <path fill="#0B6818" d="M33.666 31.624v2.761c0 .243-.049.486-.147.729.674.203 1.303.439 1.877.681a15.84 15.84 0 003.42-2.163v-.05c-1.419-.832-3.175-1.61-5.15-1.958z"/>
  <path fill="#5FD16F" d="M25.81 35.266c-.872.416-1.729.733-2.517.974-.18.274-.27.49-.27.65v.116c0 .365.22.545.661.545h6.214c.08 0 .154-.005.22-.016-1.717-.606-3.189-1.474-4.309-2.269z"/>
  <path fill="#138622" d="M35.396 35.797a19.433 19.433 0 01-2.88 1.084v.123c0 .365.23.546.69.546h5.426a19.293 19.293 0 00-3.236-1.753zm-6.163-1.346c-.77 0-1.519.068-2.238.187-.395.231-.792.44-1.186.628 1.12.795 2.592 1.663 4.309 2.269.167-.029.29-.09.367-.19l-.119.016s.04-.278.145-.752c-.096-.206-.28-.462-.557-.769-.41-.457-.621-.92-.632-1.387-.029-.002-.059-.002-.089-.002zm1.28 2.157c-.105.475-.145.753-.145.753l.119-.017a.537.537 0 00.103-.34v-.115a.711.711 0 00-.077-.28z"/>
  <path fill="#04550A" d="M33.52 35.116a2.869 2.869 0 01-.428.71c-.378.474-.57.826-.576 1.055.826-.239 1.826-.587 2.88-1.084a17.928 17.928 0 00-1.877-.681z"/>
  <path fill="#34A34F" d="M24.145 33.945v.47c0 .364-.107.723-.322 1.081.501-.188 1.034-.363 1.595-.516-.522-.387-.95-.747-1.273-1.035zm5.179-6.383c-1.777.98-3.632 1.5-5.179 1.775v3.612a19.3 19.3 0 015.179-1.408v-3.98z"/>
  <path fill="#0B6818" d="M29.324 31.541c-2.306.28-4.206.988-5.179 1.408v.996c.324.288.753.648 1.273 1.035a15.397 15.397 0 011.579-.342 14.027 14.027 0 002.327-1.7V31.54z"/>
  <path fill="#138622" d="M25.418 34.98c-.561.153-1.094.328-1.595.516-.07.115-.148.23-.239.344a5.247 5.247 0 00-.291.4c.788-.241 1.645-.558 2.516-.974a19.146 19.146 0 01-.391-.286z"/>
  <path fill="#04560B" d="M26.997 34.638c-.546.088-1.073.207-1.58.342.127.094.257.189.392.285.395-.187.793-.396 1.188-.627z"/>
  <path fill="#5FD16F" d="M29.324 20.24c-.189.244-.386.485-.595.72-1.393 1.572-3.067 2.69-4.584 3.468v4.254c.185-.179.377-.352.576-.523 1.46-1.252 3.1-2.094 4.603-2.658v-3.074a25.403 25.403 0 00-.089-.017l.089-.166V20.24z"/>
  <path fill="#138622" d="M29.324 22.246c-.059.107-.089.166-.089.166l.089.017v-.183zm6.816-3.554c-.58 0-1.736.038-3.159.285a3.145 3.145 0 00-.006.192c0 .824.307 1.51.92 2.057.325.288.697.5 1.123.636 1.065-1.765 1.528-3.162 1.528-3.162s-.145-.008-.406-.008zM29.324 25.503c-1.503.564-3.142 1.406-4.603 2.657-.2.17-.39.345-.576.524v.655c1.547-.273 3.402-.793 5.179-1.775v-2.061z"/>
  <path fill="#34A34F" d="M28.586 15.777c-.172 0-.367.047-.586.14l-4.344 2.13c-.422.23-.633.45-.633.66v.115c0 .192.187.524.561.992.375.47.561.954.561 1.453v2.36a14.348 14.348 0 012.52-2.205 14.281 14.281 0 012.659-1.414v-3.486a.709.709 0 00-.36-.648.735.735 0 00-.378-.098z"/>
  <path fill="#138622" d="M29.324 20.01c-.893.363-1.796.826-2.658 1.414a14.417 14.417 0 00-2.52 2.206v.798c1.516-.778 3.188-1.896 4.583-3.468.209-.235.406-.476.595-.72v-.23z"/>
  <path fill="#34A34F" d="M65.423 26.66c-1.347 1.482-3.518 3.42-6.362 4.473-.488.18-.977.33-1.465.448.791.073 1.474.186 2.005.291l4.787-2.693c.747-.384 1.122-.979 1.122-1.783a2.99 2.99 0 00-.087-.736zM60.017 23.455c-1.937 0-3.6.666-4.992 1.999-.177.17-.342.346-.497.527.69-.405 1.433-.77 2.23-1.066 1.847-.683 3.722-.9 5.352-.9.34 0 .667.01.983.027-.834-.392-1.86-.587-3.076-.587z"/>
  <path fill="#99EF9C" d="M48.77 31.455c-1.613 1.15-3.377 1.854-4.949 2.283v.65c0 .498-.192.982-.576 1.453-.384.47-.576.818-.576 1.05v.115c0 .365.22.545.663.545h.192c1.013-1.22 2.805-3.07 5.244-4.376v-1.72"/>
  <path fill="#5FD16F" d="M48.77 25.92c-1.664.866-3.401 1.318-4.949 1.542v5.278c1.461-2 3.358-3.414 4.95-4.348v-2.471zm3.134-2.177h-.062a14.547 14.547 0 01-2.665 1.955h2.727c.192 0 .35-.062.475-.186a.642.642 0 00.186-.474v-.633a.642.642 0 00-.66-.662z"/>
  <path fill="#39C444" d="M48.77 28.392c-1.589.934-3.486 2.347-4.949 4.348v.998c1.572-.43 3.334-1.133 4.95-2.283v-3.063z"/>
  <path fill="#34A34F" d="M48.375 23.187a17.476 17.476 0 01-3.509 1.529c-.318.356-.666.719-1.045 1.078v1.171c.364-.333.752-.653 1.164-.954 1.52-1.11 3.18-1.819 4.696-2.267h-1.026a6.15 6.15 0 01-.28-.557zm5.197-5.056c-.036 0-.072 0-.107.002-.672 1.098-1.527 2.223-2.604 3.225.05.043.1.086.153.126.363.278.862.418 1.496.418.595 0 1.054-.177 1.38-.533.326-.354.49-.753.49-1.193 0-.755-.27-1.437-.808-2.045z"/>
  <path fill="#138622" d="M51.842 23.743H49.68c-1.515.45-3.175 1.155-4.696 2.266-.412.301-.8.621-1.163.954v.497c1.547-.224 3.284-.675 4.948-1.541v-.223h.409a14.385 14.385 0 002.665-1.953z"/>
  <path fill="#5FD16F" d="M38.12 23.453c-.171 0-.371.049-.599.145l-3.544 1.737c-.175.561-.446 1.325-.838 2.193.352.452.527.915.527 1.393v.736c.384-.505.811-.996 1.286-1.463 1.203-1.184 2.564-2.063 3.864-2.712v-1.278c0-.307-.115-.527-.344-.663a.693.693 0 00-.352-.088z"/>
  <path fill="#138622" d="M38.816 25.482c-1.3.65-2.661 1.528-3.864 2.712-.475.467-.902.96-1.286 1.463v.288c1.523-.055 3.34-.3 5.15-.966v-3.497zM33.977 25.335l-.8.392c-.44.21-.661.43-.661.662v.115c0 .173.192.493.576.964l.049.06c.39-.866.66-1.632.836-2.193zM44.866 24.716c-.325.101-.64.192-.94.269-.054.216-.118.456-.195.713h.09v.096c.379-.36.727-.722 1.045-1.078z"/>
  <path fill="#04550A" d="M43.927 24.985a18.533 18.533 0 01-2.496.476c.013.017.03.034.045.051a.642.642 0 00.474.186h1.781c.077-.258.141-.497.196-.713z"/>
  <path fill="#0A6629" d="M65.306 32.782c-.173 0-.334.075-.485.224-.27.365-.666.666-1.194.905-.527.241-1.088.36-1.682.36-.85 0-1.585-.23-2.208-.688a.574.574 0 00-.027.006 19.02 19.02 0 01-3.527 3.238c1.095.674 2.385 1.01 3.864 1.01 1.708 0 3.097-.498 4.172-1.496 1.074-.998 1.63-1.974 1.667-2.934.02-.307-.101-.503-.36-.59a.708.708 0 00-.22-.035z"/>
  <path fill="#02410D" d="M59.724 33.574a.107.107 0 01-.014.015.639.639 0 00.027-.005.033.033 0 01-.014-.01z"/>
  <path fill="#5FD16F" d="M57.608 27.247a18.8 18.8 0 01-2.641.183c-.497 0-.95-.019-1.35-.045-.448.934-.672 1.986-.676 3.157 1.166-1.075 2.74-2.267 4.648-3.1.006-.068.011-.132.019-.195zm6.501-2.554c-.645.465-1.35.894-2.112 1.261-.282.136-.568.26-.852.373l.037.104a16.28 16.28 0 012.28-.157c.662 0 1.293.038 1.876.096-.216-.6-.624-1.161-1.229-1.677z"/>
  <path fill="#138622" d="M63.46 26.274c-.729 0-1.495.046-2.28.157.164.476.247.94.247 1.396 0 .633-.25 1.122-.747 1.467l-2.675 1.611c-.288-.864-.431-1.871-.431-3.021 0-.153.006-.301.017-.446-1.91.834-3.484 2.027-4.648 3.1v.02c0 .403.023.793.07 1.168a16.84 16.84 0 012.808-.23c.635 0 1.233.032 1.781.085.488-.12.977-.268 1.465-.448 2.844-1.054 5.014-2.991 6.362-4.473a3.197 3.197 0 00-.087-.29c-.589-.058-1.22-.096-1.882-.096zM62.11 24.017c-1.632 0-3.505.217-5.351.9-.798.296-1.542.66-2.23 1.066-.37.433-.673.9-.914 1.4.4.028.855.045 1.35.045.79 0 1.688-.047 2.64-.182.069-.586.234-1.092.498-1.52.354-.575.819-.861 1.395-.861.65 0 1.137.335 1.453 1.007.071.152.135.305.192.455.286-.113.57-.237.852-.373a14.056 14.056 0 002.113-1.26l-.036-.03a4.385 4.385 0 00-.981-.622 18.273 18.273 0 00-.98-.025z"/>
  <path fill="#5FD16F" d="M49.775 16.522c-1.976 0-3.461.536-4.459 1.611-.736.793-1.2 1.76-1.393 2.897l.233-.002h.027a13.409 13.409 0 013.415-1.852l.005-.064c.087-.806.456-1.208 1.107-1.208.384 0 .672.139.862.416.053.075.1.154.143.237a18.939 18.939 0 013.746-.424 3.36 3.36 0 00.043-.071 4.558 4.558 0 00-.48-.446c-.9-.729-1.982-1.094-3.249-1.094z"/>
  <path fill="#138622" d="M47.597 19.176c-.598.222-1.195.49-1.784.808a13.78 13.78 0 00-1.63 1.044c1.856.002 3.12.266 3.12.266s-.82 1.611-2.437 3.422a17.262 17.262 0 003.509-1.529c-.196-.44-.377-.96-.54-1.558-.234-.85-.313-1.668-.238-2.453zm5.868-1.043a18.938 18.938 0 00-3.746.424c.117.224.203.476.26.755.077.384.177.771.3 1.165.106.335.3.628.58.88 1.077-1 1.932-2.126 2.606-3.224z"/>
  <path fill="#23AB30" d="M44.157 21.03c-.078 0-.155 0-.234.002a4.178 4.178 0 00-.034.222c.096-.075.194-.15.294-.224h-.026z"/>
  <path fill="#076E0F" d="M44.183 21.03c-.1.074-.198.149-.294.224a7.877 7.877 0 00-.068 1.05v1.439h-1.869a.642.642 0 00-.474.186.643.643 0 00-.187.474v.059c1.685-.561 2.898-.714 2.898-.714s-.068.473-.26 1.237c.299-.077.613-.168.939-.27 1.617-1.81 2.438-3.421 2.438-3.421s-1.267-.262-3.123-.264z"/>
  <path fill="#04550A" d="M44.187 23.748s-1.215.155-2.897.714v.574c0 .167.047.308.14.423.522-.06 1.413-.195 2.497-.476.194-.762.26-1.235.26-1.235z"/>
  <path fill="#34A34F" d="M49.634 35.921a12.988 12.988 0 01-1.133 1.63h1.16c.44 0 .66-.182.66-.545v-.115c.002-.218-.228-.54-.687-.97zm9.704-2.253a15.862 15.862 0 01-3.054.286c-1.008 0-1.942-.086-2.75-.205.328.776.79 1.468 1.39 2.076.352.358.732.669 1.14.93a20.278 20.278 0 013.274-3.087z"/>
  <path fill="#0B6818" d="M57.598 31.583a16.256 16.256 0 01-3.887.451c-.224 0-.444-.003-.659-.01a7.41 7.41 0 00.486 1.725c.808.119 1.741.205 2.75.205.966 0 2-.079 3.053-.286.087-.064.173-.128.262-.19a4.381 4.381 0 01-.934-1.077l.938-.527a19.868 19.868 0 00-2.009-.291z"/>
  <path fill="#1F9930" d="M48.77 33.173c-2.44 1.306-4.231 3.159-5.244 4.377h4.977c.203-.25.399-.51.589-.781.194-.28.375-.563.544-.85-.028-.026-.058-.054-.089-.08-.517-.471-.777-.955-.777-1.454v-1.212z"/>
  <path fill="#0A6629" d="M59.708 33.591a9.17 9.17 0 01-.37.077 20.178 20.178 0 00-3.272 3.087l.115.074a19.02 19.02 0 003.527-3.238z"/>
  <path fill="#0A6629" d="M59.6 33.478c-.09.062-.176.126-.262.19.124-.024.248-.05.37-.077a.107.107 0 01.014-.015c-.042-.032-.083-.064-.123-.098z"/>
  <path fill="#04560B" d="M55.818 31.498c-.881 0-1.832.064-2.809.23.011.1.026.197.042.293.214.008.434.011.658.011 1.201 0 2.532-.116 3.887-.451a19.94 19.94 0 00-1.778-.083z"/>
  <path fill="#fff" d="M133.656 20.944V16.24h.984l1.428 3.276h.096l1.428-3.276h.984v4.704h-.744v-4.032l.156.012-1.404 3.18h-.984l-1.404-3.18.156-.012v4.032h-.696zm-2.916 0v-4.176h.768v4.176h-.768zm-1.452-4.056v-.648h3.672v.648h-3.672z"/>
</svg>