<svg xmlns="http://www.w3.org/2000/svg" width="65" height="64" fill="none">
  <path fill="#34A34F" d="M56.125 20.92c.518 0 .938-.42.938-.937v-6.546a2.816 2.816 0 00-2.813-2.812h-.938v-2.5A2.816 2.816 0 0050.5 5.312h-.938v-2.5A2.816 2.816 0 0046.75 0h-36a2.816 2.816 0 00-2.813 2.813v5.17a.937.937 0 101.875 0v-5.17c0-.518.421-.938.938-.938h36c.517 0 .938.42.938.938v47.75c0 .517-.421.937-.938.937h-36a.938.938 0 01-.938-.938V11.983a.937.937 0 10-1.874 0v38.58a2.816 2.816 0 002.812 2.812h.938v2.5a2.816 2.816 0 002.812 2.813h.938v2.5A2.816 2.816 0 0018.25 64h36a2.816 2.816 0 002.813-2.813V23.96a.937.937 0 10-1.876 0v37.227c0 .518-.42.938-.937.938h-36a.938.938 0 01-.938-.938v-2.5h23.171a.937.937 0 100-1.874H14.5a.939.939 0 01-.938-.938v-2.5H46.75a2.816 2.816 0 002.813-2.813V7.188h.937c.517 0 .938.42.938.937v47.75c0 .517-.421.938-.938.938h-6.04a.937.937 0 100 1.874h6.04a2.816 2.816 0 002.813-2.812V12.5h.937c.517 0 .938.42.938.938v6.545c0 .518.42.938.937.938z"/>
  <path fill="#34A34F" d="M14.25 15.5V22a1.44 1.44 0 001.438 1.438h6.5A1.44 1.44 0 0023.625 22v-4.834l1.921-1.64A.937.937 0 1024.33 14.1l-.866.738a1.439 1.439 0 00-1.276-.775h-6.5A1.44 1.44 0 0014.25 15.5zm1.875.438h5.625v.363l-1.86 1.588-.889-.962a.938.938 0 00-1.377 1.271l1.5 1.625a.938.938 0 001.297.078l1.33-1.135v2.797h-5.626v-5.625zM42.313 15.563h-15a.937.937 0 100 1.874h15a.937.937 0 100-1.875zM42.313 19.563h-15a.937.937 0 100 1.875h15a.937.937 0 100-1.875zM14.25 34.125a1.44 1.44 0 001.438 1.438h6.5a1.44 1.44 0 001.437-1.438v-6.5a1.44 1.44 0 00-1.438-1.438h-6.5a1.44 1.44 0 00-1.437 1.438v6.5zm1.875-6.063h5.625v5.625h-5.625v-5.624zM42.313 27.688h-15a.937.937 0 100 1.875h15a.937.937 0 100-1.875zM42.313 31.688h-15a.937.937 0 100 1.875h15a.937.937 0 100-1.876zM14.25 46.25a1.44 1.44 0 001.438 1.438h6.5a1.44 1.44 0 001.437-1.438v-6.5a1.44 1.44 0 00-1.438-1.438h-6.5a1.44 1.44 0 00-1.437 1.438v6.5zm1.875-6.063h5.625v5.626h-5.625v-5.626zM42.313 39.813h-15a.937.937 0 100 1.874h15a.937.937 0 100-1.874zM42.313 43.813h-15a.937.937 0 100 1.874h15a.937.937 0 100-1.874zM37.563 4.438h-17.25a3.129 3.129 0 00-3.125 3.125 3.129 3.129 0 003.125 3.125h17.25a3.129 3.129 0 003.124-3.126 3.129 3.129 0 00-3.124-3.125zm0 4.375h-17.25c-.69 0-1.25-.561-1.25-1.25 0-.69.56-1.25 1.25-1.25h17.25c.689 0 1.25.56 1.25 1.25 0 .689-.561 1.25-1.25 1.25z"/>
</svg>