<svg xmlns="http://www.w3.org/2000/svg" width="137" height="94" fill="none">
  <path fill="#CDF7CA" fill-rule="evenodd" d="M120.873 5.583a7.348 7.348 0 00-9.227-4.78L7.787 33.776a7.348 7.348 0 004.447 14.008l16.64-5.283a3.837 3.837 0 012.322 7.314l-7.71 2.447a7.348 7.348 0 004.446 14.008l7.598-2.412a4.368 4.368 0 012.643 8.326L22.04 77.306a7.348 7.348 0 004.447 14.007L130.346 58.34a7.348 7.348 0 00-4.447-14.008l-16.133 5.122a4.368 4.368 0 01-2.644-8.326l7.336-2.328a7.348 7.348 0 00-4.447-14.008l-8.236 2.615a3.836 3.836 0 11-2.322-7.314l16.64-5.283a7.348 7.348 0 004.78-9.227z" clip-rule="evenodd" opacity=".3"/>
  <rect width="36.703" height="63.891" x="52.188" y="14.594" fill="#CDF7CA" rx="1.359"/>
  <rect width="40.781" height="67.969" x="48.109" y="10.516" stroke="#34A34F" stroke-width="2.719" rx="4.078"/>
  <path fill="#34A34F" d="M48.109 63.531H88.89v2.719H48.109z"/>
  <circle cx="68.5" cy="71.688" r="2.719" fill="#34A34F"/>
  <path fill="#fff" d="M105.203 37.703c0 11.262-10.955 20.39-24.469 20.39-4.179 0-8.113-.872-11.554-2.411-1.72-.77-8.753 3.733-10.196 2.657-1.55-1.156 2.516-7.912 1.36-9.36-2.577-3.23-4.078-7.107-4.078-11.276 0-11.261 10.955-20.39 24.468-20.39 13.514 0 24.469 9.129 24.469 20.39z"/>
  <path fill="#99EF9C" d="M102.484 39.572c0 9.29-9.129 16.822-20.39 16.822-3.483 0-6.761-.72-9.63-1.99-1.432-.634-7.293 3.08-8.495 2.193-1.292-.954 2.096-6.528 1.133-7.723-2.148-2.664-3.399-5.863-3.399-9.302 0-9.29 9.13-16.822 20.39-16.822 11.262 0 20.391 7.532 20.391 16.822z"/>
  <path stroke="#34A34F" stroke-width="2.719" d="M103.844 37.703c0 10.29-10.104 19.031-23.11 19.031-3.99 0-7.735-.833-11-2.293-.561-.252-1.165-.227-1.605-.17a8.674 8.674 0 00-1.481.359c-.924.297-1.985.738-2.98 1.152l-.212.088c-1.093.454-2.089.86-2.892 1.094-.22.065-.407.11-.56.139.009-.08.022-.17.04-.273.124-.7.414-1.6.76-2.628l.088-.26c.306-.907.64-1.895.834-2.751.108-.472.19-.975.187-1.452-.003-.453-.085-1.08-.507-1.608-2.404-3.014-3.781-6.597-3.781-10.428 0-10.289 10.104-19.031 23.11-19.031 13.005 0 23.109 8.742 23.109 19.031zm-44.27 19.44l.01.002a.049.049 0 01-.01-.001z"/>
  <rect width="2.719" height="2.719" x="71.219" y="30.906" fill="#34A34F" rx="1.359"/>
  <rect width="2.719" height="2.719" x="71.219" y="36.344" fill="#34A34F" rx="1.359"/>
  <rect width="2.719" height="2.719" x="71.219" y="41.781" fill="#34A34F" rx="1.359"/>
  <rect width="13.594" height="2.719" x="76.656" y="30.906" fill="#34A34F" rx="1.359"/>
  <rect width="13.594" height="2.719" x="76.656" y="36.344" fill="#34A34F" rx="1.359"/>
  <rect width="13.594" height="2.719" x="76.656" y="41.781" fill="#34A34F" rx="1.359"/>
</svg>