<svg xmlns="http://www.w3.org/2000/svg" width="45" height="37" fill="none">
  <rect width="26" height="26" x=".852" y="13.233" fill="#CDF7CA" rx="4" transform="rotate(-28.727 .852 13.233)"/>
  <rect width="26" height="26" x="8.852" y="13.233" fill="#CDF7CA" rx="4" transform="rotate(-28.727 8.852 13.233)"/>
  <rect width="26" height="26" x="4" y="18.385" fill="#5FD16F" rx="4" transform="rotate(-45 4 18.385)"/>
  <path fill="#fff" d="M18.524 23v-2.24c0-.736.182-1.333.544-1.792.363-.459.987-.88 1.872-1.264l1.984-.88c.491-.213.864-.485 1.12-.816.267-.33.4-.752.4-1.264 0-.565-.17-1.013-.512-1.344-.33-.341-.805-.512-1.424-.512-.618 0-1.098.176-1.44.528-.33.341-.496.81-.496 1.408H18.38c0-.715.15-1.36.448-1.936.31-.587.768-1.05 1.376-1.392.619-.341 1.387-.512 2.304-.512.907 0 1.664.165 2.272.496.619.33 1.083.773 1.392 1.328.31.555.464 1.163.464 1.824v.208c0 .885-.245 1.621-.736 2.208-.49.576-1.21 1.072-2.16 1.488l-1.984.88c-.384.16-.65.33-.8.512-.138.181-.208.416-.208.704v.432h5.936V23h-8.16z"/>
</svg>