<svg xmlns="http://www.w3.org/2000/svg" width="137" height="94" fill="none">
  <path fill="#CDF7CA" fill-rule="evenodd" d="M120.873 5.583a7.348 7.348 0 00-9.227-4.78L7.787 33.776a7.348 7.348 0 004.447 14.008l16.64-5.283a3.837 3.837 0 012.322 7.314l-7.71 2.447a7.348 7.348 0 004.446 14.008l7.598-2.412a4.368 4.368 0 012.643 8.326L22.04 77.306a7.348 7.348 0 004.447 14.007L130.346 58.34a7.348 7.348 0 00-4.447-14.008l-16.133 5.122a4.368 4.368 0 01-2.644-8.326l7.336-2.328a7.348 7.348 0 00-4.447-14.008l-8.236 2.615a3.836 3.836 0 11-2.322-7.314l16.64-5.283a7.348 7.348 0 004.78-9.227z" clip-rule="evenodd" opacity=".3"/>
  <ellipse cx="71" cy="48.461" fill="#CDF7CA" rx="31" ry="30"/>
  <path stroke="#34A34F" stroke-linecap="round" stroke-width="2.75" d="M52.375 44.96c0-4.263 1.742-8.36 4.856-11.388 3.115-3.028 7.348-4.736 11.769-4.736s8.654 1.708 11.77 4.736c3.113 3.028 4.855 7.125 4.855 11.389"/>
  <path stroke="#5FD16F" stroke-linecap="round" stroke-width="2.75" d="M59.703 42.97a9.624 9.624 0 016.806-6.806"/>
  <rect width="4" height="6" x="67" y="23.461" fill="#34A34F" rx="1.375"/>
  <rect width="48" height="5" x="45" y="49.461" fill="#34A34F" rx="2.5"/>
  <rect width="40" height="4" x="49" y="56.461" fill="#34A34F" rx="2"/>
  <circle cx="69" cy="45.461" r="33.625" stroke="#34A34F" stroke-width="2.75"/>
</svg>