<svg xmlns="http://www.w3.org/2000/svg" width="45" height="37" fill="none">
  <rect width="26" height="26" x=".852" y="13.233" fill="#CDF7CA" rx="4" transform="rotate(-28.727 .852 13.233)"/>
  <rect width="26" height="26" x="8.852" y="13.233" fill="#CDF7CA" rx="4" transform="rotate(-28.727 8.852 13.233)"/>
  <rect width="26" height="26" x="4" y="18.385" fill="#5FD16F" rx="4" transform="rotate(-45 4 18.385)"/>
  <path fill="#fff" d="M22.388 23.304c-.896 0-1.67-.17-2.32-.512-.64-.341-1.13-.795-1.472-1.36a3.696 3.696 0 01-.512-1.92h2.192c0 .576.187 1.035.56 1.376.384.341.902.512 1.552.512.661 0 1.179-.176 1.552-.528.373-.363.56-.837.56-1.424 0-.576-.186-1.045-.56-1.408-.373-.373-.885-.56-1.536-.56-.32 0-.602.048-.848.144a2.283 2.283 0 00-.624.32l-1.04-1.792 3.84-2.624-.144-.272h-5.024V11.32h7.632v2.336l-3.328 2.208c.8.053 1.483.24 2.048.56.576.31 1.014.72 1.312 1.232.31.512.464 1.093.464 1.744v.208c0 .672-.17 1.29-.512 1.856-.341.555-.832 1.003-1.472 1.344-.64.33-1.413.496-2.32.496z"/>
</svg>