<svg xmlns="http://www.w3.org/2000/svg" width="137" height="94" fill="none">
  <path fill="#CDF7CA" fill-rule="evenodd" d="M120.873 5.583a7.348 7.348 0 00-9.227-4.78L7.787 33.776a7.348 7.348 0 004.447 14.008l16.64-5.283a3.837 3.837 0 012.322 7.314l-7.71 2.447a7.348 7.348 0 004.446 14.008l7.598-2.412a4.368 4.368 0 012.643 8.326L22.04 77.306a7.348 7.348 0 004.447 14.007L130.346 58.34a7.348 7.348 0 00-4.447-14.008l-16.133 5.122a4.368 4.368 0 01-2.644-8.326l7.336-2.328a7.348 7.348 0 00-4.447-14.008l-8.236 2.615a3.836 3.836 0 11-2.322-7.314l16.64-5.283a7.348 7.348 0 004.78-9.227z" clip-rule="evenodd" opacity=".3"/>
  <path fill="#CDF7CA" d="M38.75 38.125h66V75.25a5.5 5.5 0 01-5.5 5.5h-55a5.5 5.5 0 01-5.5-5.5V38.125zM33.25 21.625c0-.76.616-1.375 1.375-1.375h74.25c.759 0 1.375.616 1.375 1.375V28.5a6.875 6.875 0 01-6.875 6.875h-68.75c-.76 0-1.375-.616-1.375-1.375V21.625z"/>
  <path stroke="#34A34F" stroke-width="2.75" d="M34.625 34h68.75v41.25a4.125 4.125 0 01-4.125 4.125h-60.5a4.125 4.125 0 01-4.125-4.125V34z"/>
  <rect width="79.75" height="17.875" x="29.125" y="16.125" stroke="#34A34F" stroke-width="2.75" rx="4.125"/>
  <path stroke="#34A34F" stroke-width="2.75" d="M80.73 59.258c-1.118 1.117-2.076 1.373-2.86 1.294-.848-.084-1.782-.588-2.731-1.538-.95-.949-1.454-1.883-1.538-2.73-.079-.785.177-1.743 1.295-2.86 1.157-1.158 2.889-2.123 4.55-2.546 1.741-.442 2.924-.189 3.47.358.548.547.802 1.73.359 3.47-.422 1.662-1.388 3.394-2.546 4.552z"/>
  <rect width="2.75" height="15.125" x="74.166" y="58.042" fill="#34A34F" rx="1.375" transform="rotate(45 74.166 58.042)"/>
  <path fill="#5FD16F" d="M67.625 20.25h11v15.125h-11z"/>
  <path fill="#34A34F" d="M67.487 60.459c1.84-1.841 1.654-4.18-1.16-6.994l-4.569-3.82c-.297-.249-.691-.267-.916-.043-.242.243-.198.68.098.977l4.782 4.78c.233.234.351.548.314.834-.083.641-.864.807-1.401.297l-4.96-4.703c-.29-.276-.706-.311-.939-.079-.232.233-.197.648.08.94l4.703 4.958c.51.538.344 1.318-.298 1.402-.285.037-.6-.082-.833-.315l-4.781-4.78c-.297-.297-.734-.341-.977-.099-.224.224-.206.62.042.916l3.821 4.569c2.815 2.814 5.153 3 6.994 1.16z"/>
  <rect width="2.75" height="15.125" x="65.542" y="60.459" fill="#34A34F" rx="1.375" transform="rotate(-45 65.542 60.459)"/>
  <path stroke="#34A34F" stroke-width="2.75" d="M63.5 16.125h13.75V34H63.5z"/>
  <path fill="#5FD16F" d="M62.125 35.375H82.75v6.875H62.125z"/>
  <rect width="24.75" height="8.25" x="58" y="34" stroke="#34A34F" stroke-width="2.75" rx="1.375"/>
</svg>