<svg xmlns="http://www.w3.org/2000/svg" width="45" height="37" fill="none">
  <rect width="26" height="26" x=".852" y="13.233" fill="#CDF7CA" rx="4" transform="rotate(-28.727 .852 13.233)"/>
  <rect width="26" height="26" x="8.852" y="13.233" fill="#CDF7CA" rx="4" transform="rotate(-28.727 8.852 13.233)"/>
  <rect width="26" height="26" x="4" y="18.385" fill="#5FD16F" rx="4" transform="rotate(-45 4 18.385)"/>
  <path fill="#fff" d="M22.574 23.304c-.917 0-1.706-.181-2.368-.544a3.912 3.912 0 01-1.504-1.44 3.984 3.984 0 01-.512-1.984h2.192c0 .608.203 1.104.608 1.488.406.384.939.576 1.6.576.683 0 1.222-.208 1.616-.624.395-.416.592-.944.592-1.584 0-.619-.197-1.141-.592-1.568-.384-.437-.917-.656-1.6-.656-.384 0-.746.075-1.088.224-.341.15-.608.347-.8.592h-2.096l.592-6.464h6.768v1.936h-5.04l-.256 2.688a3.37 3.37 0 01.96-.48 3.794 3.794 0 011.264-.192c.864 0 1.6.176 2.208.528a3.602 3.602 0 011.392 1.408c.32.576.48 1.205.48 1.888v.208c0 .693-.17 1.344-.512 1.952-.341.608-.842 1.104-1.504 1.488-.65.373-1.45.56-2.4.56z"/>
</svg>