<svg xmlns="http://www.w3.org/2000/svg" width="137" height="94" fill="none">
  <path fill="#CDF7CA" fill-rule="evenodd" d="M120.873 5.583a7.348 7.348 0 00-9.227-4.78L7.787 33.776a7.348 7.348 0 004.447 14.008l16.64-5.283a3.837 3.837 0 012.322 7.314l-7.71 2.447a7.348 7.348 0 004.446 14.008l7.598-2.412a4.368 4.368 0 012.643 8.326L22.04 77.306a7.348 7.348 0 004.447 14.007L130.346 58.34a7.348 7.348 0 00-4.447-14.008l-16.133 5.122a4.368 4.368 0 01-2.644-8.326l7.336-2.328a7.348 7.348 0 00-4.447-14.008l-8.236 2.615a3.836 3.836 0 11-2.322-7.314l16.64-5.283a7.348 7.348 0 004.78-9.227z" clip-rule="evenodd" opacity=".3"/>
  <g clip-path="url(#clip0)">
    <path fill="#CDF7CA" d="M79.688 50.219h-34.18v25.976h61.523V63.891H79.687V50.219z"/>
    <path fill="#fff" d="M80.98 58.28c.019.271.055.543.217.76.216.271.613.344.974.38 5.66.58 11.374.742 17.052.47-2.92-3.402-5.858-6.805-8.778-10.208-.74-.869-1.497-1.738-2.434-2.39-1.73-1.23-7.138-3.04-7.913-.47-.451 1.484.306 4.109.432 5.666.162 1.936.306 3.855.45 5.792z"/>
    <path fill="#99EF9C" d="M85.156 59.105V50.22h5.469l4.102 4.785 4.101 4.102H85.156z"/>
    <path stroke="#34A34F" stroke-linecap="round" stroke-width="2.734" d="M38.672 76.195h66.992c.755 0 1.367-.612 1.367-1.367v-10.29c0-.398-.22-.764-.572-.95v0A40.627 40.627 0 0189.561 46.69v0a1.076 1.076 0 00-.951-.573H42.773"/>
    <circle cx="60.547" cy="76.195" r="6.836" fill="#fff" stroke="#34A34F" stroke-width="2.734"/>
    <circle cx="91.992" cy="76.195" r="6.836" fill="#fff" stroke="#34A34F" stroke-width="2.734"/>
    <path stroke="#34A34F" stroke-width="2.734" d="M81.055 46.117V59.79h19.14"/>
    <rect width="21.875" height="2.734" x="33.203" y="58.422" fill="#34A34F" rx="1.367"/>
    <rect width="21.875" height="2.734" x="29.102" y="66.625" fill="#34A34F" rx="1.367"/>
    <rect width="21.875" height="2.734" x="30.469" y="50.219" fill="#34A34F" rx="1.367"/>
  </g>
  <path fill="#99EF9C" d="M91.992 28.344c0 9.816-9.488 17.773-21.191 17.773-3.62 0-7.027-.76-10.007-2.102a21.697 21.697 0 01-4.12-2.423 19.224 19.224 0 01-3.533-3.42c-2.231-2.815-3.532-6.194-3.532-9.828 0-9.816 9.488-17.774 21.192-17.774 11.703 0 21.191 7.958 21.191 17.774z"/>
  <path stroke="#34A34F" stroke-width="2.734" d="M91.992 26.977c0 10.348-10.162 19.14-23.242 19.14-4.013 0-7.78-.838-11.063-2.307a23.866 23.866 0 01-4.526-2.644 20.899 20.899 0 01-3.85-3.702c-2.418-3.03-3.803-6.635-3.803-10.487 0-10.349 10.162-19.141 23.242-19.141s23.242 8.792 23.242 19.14z"/>
  <path stroke="#34A34F" stroke-width="2.734" d="M79.045 27.481c-1.11 1.111-2.063 1.366-2.843 1.288-.843-.084-1.772-.586-2.715-1.53-.944-.943-1.445-1.872-1.53-2.715-.078-.78.177-1.732 1.288-2.843 1.15-1.151 2.873-2.111 4.525-2.532 1.73-.44 2.907-.188 3.45.357.545.544.797 1.72.357 3.45-.42 1.653-1.38 3.374-2.532 4.525z"/>
  <rect width="2.734" height="15.039" x="72.52" y="26.273" fill="#34A34F" rx="1.367" transform="rotate(45 72.52 26.273)"/>
  <path fill="#34A34F" d="M65.878 28.675c1.83-1.83 1.645-4.155-1.153-6.953l-4.543-3.8c-.295-.246-.688-.264-.91-.041-.242.24-.198.676.097.97l4.754 4.755c.232.231.35.544.313.828-.083.638-.86.802-1.393.296l-4.931-4.677c-.29-.274-.704-.31-.934-.078-.231.23-.197.644.078.934l4.677 4.93c.507.535.342 1.31-.296 1.394-.284.037-.597-.081-.829-.313l-4.754-4.754c-.295-.295-.73-.338-.97-.097-.224.223-.206.615.041.91l3.8 4.543c2.798 2.799 5.123 2.984 6.953 1.154z"/>
  <rect width="2.734" height="15.039" x="63.945" y="28.675" fill="#34A34F" rx="1.367" transform="rotate(-45 63.945 28.675)"/>
  <defs>
    <clipPath id="clip0">
      <path fill="#fff" d="M0 0h79.297v79.297H0z" transform="translate(29.102 5.102)"/>
    </clipPath>
  </defs>
</svg>