<svg xmlns="http://www.w3.org/2000/svg" width="76" height="77" fill="none">
  <g filter="url(#filter0_d)">
    <g filter="url(#filter1_i)">
      <path fill="#34A34F" d="M7 6h60v51H7z"/>
      <path fill="#fff" d="M21.45 33.266c-.925 0-1.727-.163-2.409-.49a5.135 5.135 0 01-1.68-1.274 5.874 5.874 0 01-.994-1.708 5.394 5.394 0 01-.322-1.778v-.308c0-.625.112-1.246.336-1.862.224-.625.56-1.19 1.008-1.694a4.988 4.988 0 011.694-1.204c.672-.308 1.461-.462 2.366-.462.896 0 1.68.154 2.352.462.672.299 1.232.7 1.68 1.204a5.02 5.02 0 011.022 1.694c.224.616.336 1.237.336 1.862v.308c0 .57-.112 1.162-.336 1.778a5.485 5.485 0 01-.994 1.708c-.438.523-.998.947-1.68 1.274-.672.327-1.465.49-2.38.49zm0-1.848c.522 0 .989-.093 1.4-.28a3.06 3.06 0 001.063-.77c.299-.336.523-.714.672-1.134.159-.43.238-.882.238-1.358 0-.513-.079-.985-.238-1.414a3.096 3.096 0 00-.672-1.12 2.993 2.993 0 00-1.064-.742 3.566 3.566 0 00-1.4-.266c-.522 0-.994.089-1.414.266-.42.177-.779.425-1.078.742-.289.317-.513.69-.672 1.12-.149.43-.224.9-.224 1.414 0 .476.075.929.224 1.358.159.42.383.798.672 1.134.299.327.658.583 1.078.77.42.187.892.28 1.414.28zM29.06 33V22.78h3.263l4.298 8.568h.462l-.28.252v-8.82h1.876V33h-3.276l-4.298-8.568h-.476l.28-.252V33H29.06zm12.441 0V22.78h1.988V33h-1.988zm1.708 0v-1.75h4.41V33h-4.41zm6.992-3.906l-3.08-6.314h2.044l2.352 4.942-.448-.14h1.33l-.476.14 2.142-4.942h1.932l-2.842 6.314H50.2zM50.705 33v-4.214h1.946V33h-1.946zM18.784 45v-1.288H18.6V42.28c0-.25-.062-.437-.184-.56-.123-.123-.313-.184-.569-.184a20.85 20.85 0 00-1.048.032c-.186.005-.354.013-.503.024v-.944l.416-.032a6.84 6.84 0 01.471-.016c.166-.005.32-.008.465-.008.448 0 .818.059 1.111.176.3.117.523.301.672.552.155.25.232.579.232.984V45h-.88zm-1.4.112c-.315 0-.593-.056-.832-.168a1.31 1.31 0 01-.553-.48 1.408 1.408 0 01-.192-.752c0-.32.078-.581.232-.784a1.44 1.44 0 01.664-.456 3.037 3.037 0 011.009-.152h1.008v.664h-1.024c-.257 0-.454.064-.593.192a.622.622 0 00-.2.48c0 .197.067.357.2.48.14.123.336.184.592.184.155 0 .296-.027.424-.08a.74.74 0 00.329-.288c.09-.139.14-.325.151-.56l.273.312c-.027.304-.102.56-.224.768a1.195 1.195 0 01-.497.48c-.207.107-.463.16-.767.16zm5.359-.056c-.4 0-.731-.05-.992-.152a1.114 1.114 0 01-.576-.528c-.128-.25-.192-.587-.192-1.008l.008-3.936h1.04l-.008 4.008c0 .213.056.379.168.496.117.112.282.168.496.168h.68v.952h-.624zm-2.448-3.584v-.816h3.072v.816h-3.072zM26.115 45v-5.84h1.136V45h-1.137zm.976 0v-1h2.52v1h-2.52zm3.565 0v-4.344h1.112V45h-1.112zm-.608-3.512v-.832h1.72v.832h-1.72zm1.016-1.352c-.218 0-.38-.056-.488-.168a.65.65 0 01-.152-.44c0-.176.051-.32.152-.432.107-.112.27-.168.488-.168.22 0 .38.056.48.168a.62.62 0 01.152.432.65.65 0 01-.152.44c-.1.112-.26.168-.48.168zM33.154 45v-4.448c0-.496.136-.861.408-1.096.277-.24.685-.36 1.224-.36h.544v.856h-.624c-.165 0-.293.045-.384.136-.085.085-.128.208-.128.368V45h-1.04zm-.544-3.456v-.816h2.792v.816H32.61zm5.407 3.608c-.373 0-.7-.064-.984-.192a2.055 2.055 0 01-.696-.512 2.413 2.413 0 01-.416-.728 2.518 2.518 0 01-.136-.816v-.152c0-.288.046-.565.136-.832.096-.272.235-.512.416-.72.187-.213.416-.381.688-.504.272-.128.587-.192.944-.192.47 0 .862.104 1.176.312.32.203.56.472.72.808.16.33.24.688.24 1.072v.4h-3.848v-.68h3.152l-.344.336c0-.277-.04-.515-.12-.712a.951.951 0 00-.368-.456c-.16-.107-.362-.16-.608-.16-.245 0-.453.056-.624.168a1.06 1.06 0 00-.392.488 1.98 1.98 0 00-.128.752c0 .272.043.515.128.728.086.208.216.373.392.496.176.117.4.176.672.176s.494-.053.664-.16a.748.748 0 00.328-.408h1.024c-.064.299-.186.56-.368.784a1.8 1.8 0 01-.696.52 2.332 2.332 0 01-.952.184zm4.945 0a2.33 2.33 0 01-.984-.192 2.076 2.076 0 01-.688-.512 2.19 2.19 0 01-.408-.72 2.52 2.52 0 01-.136-.816v-.152c0-.293.046-.573.136-.84.096-.272.238-.512.424-.72.187-.213.416-.381.688-.504.278-.128.598-.192.96-.192.379 0 .718.075 1.016.224.299.144.536.347.712.608.182.261.283.565.304.912h-1.08a.868.868 0 00-.288-.56c-.16-.15-.381-.224-.664-.224-.245 0-.45.059-.616.176-.16.117-.28.28-.36.488-.08.203-.12.437-.12.704 0 .256.038.488.112.696.08.208.2.37.36.488.166.117.376.176.632.176.192 0 .358-.035.496-.104a.82.82 0 00.328-.288.942.942 0 00.16-.416h1.08a1.77 1.77 0 01-.312.928 1.87 1.87 0 01-.728.616 2.26 2.26 0 01-1.024.224zM45.917 45v-5.84h1.112v3.408h-.192c0-.437.056-.808.168-1.112.112-.304.277-.536.496-.696.224-.16.507-.24.848-.24h.048c.496 0 .872.17 1.128.512.256.341.384.837.384 1.488V45h-1.112v-2.584c0-.277-.08-.496-.24-.656-.154-.16-.36-.24-.616-.24a.87.87 0 00-.664.272c-.165.176-.248.408-.248.696V45h-1.112zm7.132.152c-.374 0-.702-.064-.984-.192a2.053 2.053 0 01-.696-.512 2.41 2.41 0 01-.416-.728 2.518 2.518 0 01-.136-.816v-.152c0-.288.045-.565.136-.832.096-.272.234-.512.416-.72.186-.213.416-.381.688-.504.272-.128.586-.192.944-.192.469 0 .861.104 1.176.312.32.203.56.472.72.808.16.33.24.688.24 1.072v.4h-3.848v-.68h3.152l-.344.336c0-.277-.04-.515-.12-.712a.951.951 0 00-.368-.456c-.16-.107-.363-.16-.608-.16-.246 0-.454.056-.624.168a1.06 1.06 0 00-.392.488 1.978 1.978 0 00-.128.752c0 .272.042.515.128.728.085.208.216.373.392.496.176.117.4.176.672.176s.493-.053.664-.16a.749.749 0 00.328-.408h1.024c-.064.299-.187.56-.368.784a1.801 1.801 0 01-.696.52 2.332 2.332 0 01-.952.184zm3.12-.152v-4.448c0-.496.137-.861.409-1.096.277-.24.685-.36 1.224-.36h.544v.856h-.624c-.166 0-.294.045-.384.136-.086.085-.128.208-.128.368V45h-1.04zm-.543-3.456v-.816h2.792v.816h-2.792z"/>
    </g>
    <path fill="#34A34F" d="M7 57h60v4l-30 6-30-6v-4z"/>
  </g>
  <path fill="#07572A" d="M7 6a2 2 0 00-2 2h2V6zM67 6a2 2 0 012 2h-2V6z"/>
  <defs>
    <filter id="filter0_d" width="76" height="77" x="0" y="0" color-interpolation-filters="sRGB" filterUnits="userSpaceOnUse">
      <feFlood flood-opacity="0" result="BackgroundImageFix"/>
      <feColorMatrix in="SourceAlpha" result="hardAlpha" values="0 0 0 0 0 0 0 0 0 0 0 0 0 0 0 0 0 0 127 0"/>
      <feOffset dx="1" dy="2"/>
      <feGaussianBlur stdDeviation="4"/>
      <feComposite in2="hardAlpha" operator="out"/>
      <feColorMatrix values="0 0 0 0 0 0 0 0 0 0 0 0 0 0 0 0 0 0 0.12 0"/>
      <feBlend in2="BackgroundImageFix" result="effect1_dropShadow"/>
      <feBlend in="SourceGraphic" in2="effect1_dropShadow" result="shape"/>
    </filter>
    <filter id="filter1_i" width="60" height="53" x="7" y="6" color-interpolation-filters="sRGB" filterUnits="userSpaceOnUse">
      <feFlood flood-opacity="0" result="BackgroundImageFix"/>
      <feBlend in="SourceGraphic" in2="BackgroundImageFix" result="shape"/>
      <feColorMatrix in="SourceAlpha" result="hardAlpha" values="0 0 0 0 0 0 0 0 0 0 0 0 0 0 0 0 0 0 127 0"/>
      <feOffset dy="4"/>
      <feGaussianBlur stdDeviation="1"/>
      <feComposite in2="hardAlpha" k2="-1" k3="1" operator="arithmetic"/>
      <feColorMatrix values="0 0 0 0 1 0 0 0 0 1 0 0 0 0 1 0 0 0 0.12 0"/>
      <feBlend in2="shape" result="effect1_innerShadow"/>
    </filter>
  </defs>
</svg>