<svg xmlns="http://www.w3.org/2000/svg" width="76" height="77" fill="none">
  <g filter="url(#filter0_d)">
    <g filter="url(#filter1_i)">
      <path fill="#34A34F" d="M7 6h60v51H7z"/>
      <path fill="#fff" d="M21.45 33.266c-.925 0-1.727-.163-2.409-.49a5.097 5.097 0 01-1.694-1.274 5.626 5.626 0 01-.98-1.708 5.394 5.394 0 01-.322-1.778v-.308c0-.625.112-1.246.336-1.862a5.17 5.17 0 011.008-1.68 4.898 4.898 0 011.694-1.218c.672-.308 1.461-.462 2.366-.462.887 0 1.666.154 2.338.462a4.73 4.73 0 011.694 1.218 5.17 5.17 0 011.008 1.68c.234.616.35 1.237.35 1.862v.308c0 .57-.112 1.162-.336 1.778a5.485 5.485 0 01-.994 1.708c-.438.523-.998.947-1.68 1.274-.672.327-1.465.49-2.38.49zm0-1.848c.69 0 1.287-.159 1.791-.476.504-.327.892-.76 1.162-1.302.28-.541.42-1.13.42-1.764 0-.672-.14-1.274-.42-1.806a3.069 3.069 0 00-1.162-1.274c-.504-.308-1.101-.462-1.792-.462-.7 0-1.302.154-1.806.462a3.164 3.164 0 00-1.176 1.274c-.27.532-.406 1.134-.406 1.806 0 .635.136 1.223.406 1.764.271.541.658.975 1.162 1.302.514.317 1.12.476 1.82.476zM29.06 33V22.78h3.263l4.298 8.568h.182V22.78h1.876V33h-3.276l-4.298-8.568h-.196V33H29.06zm12.441 0V22.78h1.988v8.47h4.13V33h-6.118zm9.204 0v-3.906H50.2l-3.08-6.314h2.044l2.282 4.802h.532l2.086-4.802h1.932l-2.842 6.314h-.504V33h-1.946zM17.383 45.112c-.48 0-.863-.123-1.151-.368-.283-.245-.425-.59-.425-1.032 0-.475.171-.824.513-1.048.346-.23.81-.344 1.392-.344h.887v-.04c0-.496-.25-.744-.752-.744a20.85 20.85 0 00-1.048.032c-.186.005-.354.013-.503.024v-.944a16.96 16.96 0 011.352-.056c.666 0 1.168.136 1.503.408.342.267.512.701.512 1.304V45h-.88v-.832c-.197.63-.664.944-1.4.944zm.313-.792c.149 0 .29-.027.423-.08a.74.74 0 00.329-.288c.09-.139.14-.325.151-.56v-.408h-.904c-.256 0-.453.064-.591.192a.622.622 0 00-.2.48c0 .203.066.365.2.488.138.117.335.176.591.176zm5.047.736c-.4 0-.731-.05-.992-.152a1.11 1.11 0 01-.584-.528c-.123-.245-.184-.581-.184-1.008v-1.896h-.688v-.816h.688l.008-1.224h1.04l-.008 1.224h1.344v.816h-1.344v1.968c0 .213.056.379.168.496.117.112.282.168.496.168h.68v.952h-.624zM26.115 45v-5.84h1.136V44h2.36v1h-3.497zm4.95-4.864c-.22 0-.382-.056-.489-.168a.65.65 0 01-.152-.44c0-.176.051-.32.152-.432.107-.112.27-.168.488-.168.214 0 .371.056.472.168a.6.6 0 01.16.432.63.63 0 01-.16.44c-.1.112-.258.168-.472.168zM30.655 45v-3.512h-.608v-.832h1.72V45h-1.112zm2.498 0v-3.456h-.544v-.816h.544v-.176c0-.496.136-.861.408-1.096.277-.24.685-.36 1.224-.36h.544v.856h-.624c-.165 0-.293.045-.384.136-.085.085-.128.208-.128.368v.272h1.208v.816h-1.208V45h-1.04zm4.863.152c-.373 0-.7-.064-.984-.192a2.055 2.055 0 01-.696-.512 2.413 2.413 0 01-.416-.728 2.518 2.518 0 01-.136-.816v-.152c0-.288.046-.565.136-.832a2.31 2.31 0 01.416-.72c.187-.213.416-.381.688-.504.272-.128.587-.192.944-.192.47 0 .862.104 1.176.312.315.203.552.472.712.808.166.33.248.688.248 1.072v.4h-3.264c.038.341.15.616.336.824.192.208.472.312.84.312.267 0 .486-.053.656-.16.176-.112.288-.248.336-.408h1.024a1.783 1.783 0 01-.68 1.08c-.357.272-.802.408-1.336.408zm-.048-3.728c-.314 0-.565.088-.752.264-.186.176-.306.419-.36.728h2.184c-.042-.31-.154-.552-.336-.728-.176-.176-.42-.264-.736-.264zm4.993 3.728a2.33 2.33 0 01-.984-.192 1.973 1.973 0 01-.688-.512 2.19 2.19 0 01-.408-.72 2.52 2.52 0 01-.136-.816v-.152c0-.288.046-.565.136-.832a2.29 2.29 0 01.416-.728c.187-.213.416-.381.688-.504.278-.128.6-.192.968-.192.379 0 .715.075 1.008.224.299.144.536.347.712.608.182.261.286.565.312.912h-1.08a.92.92 0 00-.288-.56c-.16-.15-.381-.224-.664-.224-.373 0-.65.128-.832.384-.176.256-.264.584-.264.984 0 .39.086.715.256.976.176.256.459.384.848.384.288 0 .515-.075.68-.224a.907.907 0 00.304-.584h1.08a1.77 1.77 0 01-.312.928 1.845 1.845 0 01-.728.624 2.363 2.363 0 01-1.024.216zM45.917 45v-5.84h1.112v2.224c.112-.277.277-.49.496-.64.219-.15.494-.224.824-.224h.048c.496 0 .872.173 1.128.52.256.341.384.835.384 1.48V45h-1.112v-2.584c0-.277-.08-.496-.24-.656-.154-.16-.36-.24-.616-.24-.277 0-.498.09-.664.272-.165.176-.248.408-.248.696V45h-1.112zm7.132.152c-.374 0-.702-.064-.984-.192a2.053 2.053 0 01-.696-.512 2.41 2.41 0 01-.416-.728 2.518 2.518 0 01-.136-.816v-.152c0-.288.045-.565.136-.832.096-.267.234-.507.416-.72.186-.213.416-.381.688-.504.272-.128.586-.192.944-.192.469 0 .861.104 1.176.312.314.203.552.472.712.808.165.33.248.688.248 1.072v.4h-3.264c.037.341.149.616.336.824.192.208.472.312.84.312.266 0 .485-.053.656-.16.176-.112.288-.248.336-.408h1.024a1.783 1.783 0 01-.68 1.08c-.358.272-.803.408-1.336.408zM53 41.424c-.315 0-.566.088-.752.264-.187.176-.307.419-.36.728h2.184c-.043-.31-.155-.552-.336-.728-.176-.176-.422-.264-.736-.264zM56.17 45v-3.456h-.544v-.816h.544v-.176c0-.496.136-.861.408-1.096.277-.24.685-.36 1.224-.36h.544v.856h-.624c-.166 0-.294.045-.384.136-.086.085-.128.208-.128.368v.272h1.208v.816H57.21V45h-1.04z"/>
    </g>
    <path fill="#34A34F" d="M7 57h60v4l-30 6-30-6v-4z"/>
  </g>
  <path fill="#07572A" d="M7 6a2 2 0 00-2 2h2V6zM67 6a2 2 0 012 2h-2V6z"/>
  <defs>
    <filter id="filter0_d" width="76" height="77" x="0" y="0" color-interpolation-filters="sRGB" filterUnits="userSpaceOnUse">
      <feFlood flood-opacity="0" result="BackgroundImageFix"/>
      <feColorMatrix in="SourceAlpha" result="hardAlpha" values="0 0 0 0 0 0 0 0 0 0 0 0 0 0 0 0 0 0 127 0"/>
      <feOffset dx="1" dy="2"/>
      <feGaussianBlur stdDeviation="4"/>
      <feComposite in2="hardAlpha" operator="out"/>
      <feColorMatrix values="0 0 0 0 0 0 0 0 0 0 0 0 0 0 0 0 0 0 0.12 0"/>
      <feBlend in2="BackgroundImageFix" result="effect1_dropShadow"/>
      <feBlend in="SourceGraphic" in2="effect1_dropShadow" result="shape"/>
    </filter>
    <filter id="filter1_i" width="60" height="53" x="7" y="6" color-interpolation-filters="sRGB" filterUnits="userSpaceOnUse">
      <feFlood flood-opacity="0" result="BackgroundImageFix"/>
      <feBlend in="SourceGraphic" in2="BackgroundImageFix" result="shape"/>
      <feColorMatrix in="SourceAlpha" result="hardAlpha" values="0 0 0 0 0 0 0 0 0 0 0 0 0 0 0 0 0 0 127 0"/>
      <feOffset dy="4"/>
      <feGaussianBlur stdDeviation="1"/>
      <feComposite in2="hardAlpha" k2="-1" k3="1" operator="arithmetic"/>
      <feColorMatrix values="0 0 0 0 1 0 0 0 0 1 0 0 0 0 1 0 0 0 0.12 0"/>
      <feBlend in2="shape" result="effect1_innerShadow"/>
    </filter>
  </defs>
</svg>