<svg xmlns="http://www.w3.org/2000/svg" width="17" height="16" fill="none">
  <path fill="#34A34F" d="M8.5 6c-.29 0-.52.262-.499.57l.211 3.645c.011.16.137.285.288.285a.296.296 0 00.288-.285l.21-3.645C9.02 6.262 8.79 6 8.5 6zM5.76 7.178c-.073-.3.107-.597.393-.648.285-.05.557.168.59.475l.338 3.134a.296.296 0 01-.234.33.296.296 0 01-.332-.23l-.754-3.06zM10.847 6.53c-.285-.05-.557.168-.59.475L9.92 10.14a.296.296 0 00.234.33.297.297 0 00.332-.23l.755-3.06c.073-.3-.107-.598-.393-.649z"/>
  <path fill="#34A34F" fill-rule="evenodd" d="M12.914 9.971l-.333 3.665A1.5 1.5 0 0111.087 15H5.913a1.5 1.5 0 01-1.494-1.364L4.086 9.97a3 3 0 01.54-5.968 4 4 0 017.748 0 3 3 0 01.54 5.968zM6.379 2.88A3 3 0 0111.5 5a.5.5 0 001 0 2 2 0 010 4l-.498-.045-.269 2.956a13.24 13.24 0 00-6.466 0l-.269-2.956L4.5 9a2 2 0 010-4 .5.5 0 001 0 3 3 0 01.879-2.121zm-1.02 10.04a12.24 12.24 0 016.283 0l-.057.626a.5.5 0 01-.498.455H5.913a.5.5 0 01-.498-.455l-.057-.625z" clip-rule="evenodd"/>
</svg>